<?xml version="1.0" encoding="utf-8"?>
<!-- Generator: Adobe Illustrator 25.2.0, SVG Export Plug-In . SVG Version: 6.00 Build 0)  -->
<svg version="1.1" id="Layer_1" xmlns="http://www.w3.org/2000/svg" xmlns:xlink="http://www.w3.org/1999/xlink" x="0px" y="0px"
	 width="1439.6px" height="792px" viewBox="0 0 1439.6 792" style="enable-background:new 0 0 1439.6 792;" xml:space="preserve">
<g>
	<path d="M288.5,421.1c-3,3-5.8,5.9-8.7,8.8c-4.8,4.8-9.6,9.6-14.3,14.4c-2.7,2.8-6,2.8-8.6,0.1c-10.6-10.7-21.3-21.3-32-32
		c-2.6-2.6-2.6-5.7,0-8.3c16-16,32.1-32.1,48.1-48.1c2.1-2.1,5.4-2.3,7.6-0.2c2.1,1.9,2.3,5.1,0.3,7.3c-3,3.1-5.9,6.2-9,9.2
		c-3.5,3.5-7.1,6.9-10.6,10.4c-4.4,4.4-8.7,8.8-13,13.1c-4.1,4.1-8.1,8.3-12.1,12.3c8.3,8.3,16.6,16.7,25.4,25.5
		c0.3-0.5,0.7-1.2,1.2-1.8c7.4-7.4,14.8-14.8,22.2-22.3c0.6-0.6,1.3-1,0.3-2c-3.7-3.6-7.4-7.2-11.1-10.8c-1.2-1.2-2.3-2.5-3.2-4
		c-1.3-2.1-0.4-5.1,1.6-6.5c1.9-1.3,5.2-1.1,6.8,0.4c2.6,2.6,5.3,5.3,7.9,7.9c0.3,0.3,0.7,0.6,1.2,1c0.1-0.4,0.1-0.6,0.1-0.8
		c0-14.7,0-29.4,0-44.1c0-0.6-0.5-1.4-0.9-1.9c-5.1-5.2-10.3-10.4-15.5-15.6c-2.1-2.1-2.2-5.2-0.4-7.2c2.2-2.5,4.8-2.8,7.3-0.8
		c1.7,1.4,3.1,2.9,4.7,4.4c1.5,1.5,3,3,4.7,4.6v-53c-0.9-5.7-5.7-10.1-11.6-10.4h-44.7v-1.8c0-5.5,0-10.9,0-16.4
		c0-6-0.6-11.9-2-17.7c-9.2-38.9-46.9-64-86.1-57.1c-21.8,3.8-38.8,15.4-50.8,34c-6.6,10.2-10.5,21.4-11.4,33.5
		c-0.6,8.3-0.3,16.6-0.4,24.9c0,0.2,0.1,0.3,0.2,0.6h9.9c-0.4,0.6-0.7,0.9-1,1.2c-11.4,11.4-22.8,22.7-34.2,34.1
		c-1.1,1.1-3.8,1.6-5.3,0.9c-1.8-0.9-3.1-2.1-3.2-4.3c-0.1-2,1-3.5,2.3-4.8c8.5-8.6,17.1-17.1,25.6-25.6c0.4-0.4,1-0.7,1.5-1
		c-0.1-0.1-0.2-0.3-0.4-0.4H35.9h-0.4c-5.4,0.1-9.8,4.2-10.4,9.5v2.3c0,4,0,7.9,0,11.9c0,0.5,0.4,1.1,0.7,1.5
		c3.3,3.4,6.7,6.7,10.1,10.1c7.7,7.7,15.4,15.4,23.1,23.1c2.3,2.3,2.4,5.7,0.4,7.8c-1.6,1.7-5.3,1.9-7.3-0.1
		c-6.3-6.5-12.7-12.8-19.1-19.3c-2.5-2.5-5-5.1-7.5-7.7c-0.1,0.1-0.3,0.2-0.4,0.3v1c0,39.7,0,79.5,0,119.2c0,3.3,0.3,6.7,1,9.9
		c4.8,22.3,23.8,37.4,46.6,37.4c13.6,0,27.2-0.2,40.8,0.1c4.5,0.1,7.5-1.1,10.6-4.4c8.7-9.2,17.8-17.9,26.7-26.9
		c1.5-1.5,3.3-2.1,5.3-1.3c2.3,0.9,3.5,2.8,3.6,5c0.2,2.1-0.9,3.3-2.2,4.6c-6.1,6-12.1,12.1-18.2,18.1c-1.4,1.4-2.8,2.9-4.3,4.5
		c0.4,0.1,0.5,0.2,0.7,0.2c15.9,0,31.8,0,47.7,0c0.5,0,1-0.3,1.4-0.6c9.5-9.4,18.9-18.9,28.4-28.4c4.2-4.2,8.4-8.4,12.7-12.6
		c-0.2-0.3-0.4-0.4-0.5-0.6c-7.8-7.8-15.7-15.7-23.5-23.6c-0.9-1-1.5-1-2.5,0c-4,4-8.2,8-12.3,12c-1.7,1.7-3.7,2.3-5.9,1.4
		c-1.7-0.7-3.9-2.7-3.4-5.3c0.3-1.3,0.9-2.8,1.8-3.8c5-5.1,10.2-10,15.3-15c1-0.9,2-1.8,3.2-2.5c1.6-1,3.6-1.1,5,0
		c2.6,2,4.9,4.3,7.3,6.6c2.8,2.7,5.5,5.6,8.2,8.4c2.7,2.7,5.6,5.4,8.3,8.1c3.1,3.1,6.1,6.2,9.2,9.2c3.4,3.2,3.6,6.7,0.3,9.9
		c-11.9,11.7-23.7,23.6-35.5,35.4c-0.4,0.4-0.8,0.8-1.4,1.5h2c13.3,0,26.6,0,39.8,0c5.5,0,10.9-0.9,16-2.8
		C280.6,466.1,290.8,445.7,288.5,421.1z M260.9,416.9c-3.6,0.6-7.9-3.8-7.6-7.7c0.3-4.2,3.4-7.5,7.8-7.5c4.6,0,7.5,3.9,7.7,7.8
		C268.8,412.9,264.9,417.6,260.9,416.9z M42.4,289.8c-0.6,0.2-1.2,0.2-1.9,0.2c-4.1,0-7.3-3.2-7.3-7.3c0-4.1,3.2-7.3,7.3-7.3
		c1.9,0,3.6,0.7,4.9,1.8c1.5,1.3,2.5,3.3,2.5,5.6C47.8,286.2,45.5,289,42.4,289.8z M250,363.2c-1,2.3-3.1,3.8-5.5,3.4
		c-1.3-0.2-2.7-0.8-3.5-1.7c-10.7-10.6-21.4-21.3-32-31.9c-1.1-1.1-2.1-2.4-1.8-4c0-2.4,1.2-4.3,2.9-5c2.1-0.9,4.7-0.4,6.2,1.1
		c10.8,10.8,21.6,21.6,32.4,32.4C250.3,359.1,250.8,361.3,250,363.2z M221.4,313.8c0-3.9,3.3-6.9,7.5-6.9c4.5,0,7.3,3,7.5,7.5
		c0.2,4-3.5,7.7-7.7,7.5C224.2,321.6,221.4,318.7,221.4,313.8z M261,353.4c-4,0-7.8-3.7-7.7-7.6c0.2-4,3.3-7.3,7.1-7.5
		c5.1-0.3,8.2,4.1,8.1,7.4C268.4,350,265.5,353.2,261,353.4z M273.8,294.7c1.5-1.5,3.3-2.3,5.4-1.5c0.9,0.3,1.6,0.8,2.1,1.3
		c1,1,1.5,2.4,1.5,4.1c0.5,1.7-0.8,2.9-1.9,4c-4.4,4.5-8.9,8.9-13.4,13.4c-4.2,4.2-8.4,8.5-12.7,12.7c-2.2,2.2-4.5,4.5-6.8,6.6
		c-1.5,1.3-3.4,1.4-5.2,0.6c-1.7-0.9-3.1-2.2-3.2-4.4c-0.1-1.8,0.5-3.2,1.8-4.5c10.6-10.6,21.2-21.2,31.8-31.8
		C273.5,295,273.6,294.9,273.8,294.7z M260.9,276c1.6-0.3,3.2,0.4,4.5,1.5c1.9,1.6,3.3,4,3.2,5.8c0,2.2-1.2,4.6-3.1,6.1
		c-1.3,1.1-3,1.8-4.7,1.7c-4-0.2-7.5-3.5-7.5-7.5C253.3,279.7,257.3,275.4,260.9,276z M226.4,271c0.5,0,1,0.4,1.3,0.8
		c7.8,7.8,15.6,15.6,23.4,23.4c3,3,2,7.8-1.4,9.1c-1.8,0.7-4.5,0.4-5.7-0.8c-10.6-10.5-21.1-21.1-31.6-31.6
		c-0.2-0.2-0.3-0.3-0.7-0.8C217,270.9,221.7,270.9,226.4,271z M205.4,283.5c0,4.3-3,7.4-7.3,7.4c-4.7,0-7.6-2.9-7.6-7.6
		c0-4.3,3.2-7.5,7.6-7.6C202.1,275.7,206.2,279.8,205.4,283.5z M119.5,250.7c0.7-14.4,7.5-25.2,20.1-31.9
		c22.4-11.9,49.8,1.8,54.2,26.8c0.5,2.7,0.5,5.4,0.5,8.2c0.1,5.6,0,11.2,0,17.1c-2.3,0-4.6-0.1-6.8,0.1c-0.9,0.1-1.9,0.5-2.5,1.1
		c-3.7,3.6-7.3,7.2-11.1,11c3.8,3.8,7.5,7.6,11.1,11.4c1.2,1.3,2.4,2.8,3.2,4.4c1,2-0.1,4.6-2.1,5.9c-1.8,1.2-4.8,1.1-6.4-0.4
		c-2.6-2.6-5.1-5.2-7.7-7.8c-3.1-3.1-6.2-6.3-9.3-9.4c-2.6-2.6-2.6-5.7,0-8.3c2.5-2.5,5-5,7.9-7.9h-51.3c-0.1-0.5-0.2-0.8-0.2-1.2
		C119.4,263.4,119.2,257,119.5,250.7z M117.7,292c3.4-3.5,7-6.7,10.5-10.1c2.6-2.6,6.2-1.7,8.6,0.7c1.9,2,3.8,4.1,5.8,6
		c2.3,2.4,4.8,4.7,7.1,7c2.2,2.2,4.4,4.5,6.6,6.7c3.7,3.6,7.4,7.3,11.2,10.8c2.5,2.4,3.3,5.1,2,7.4c-0.3,0.5-0.6,0.9-1,1.3
		c-15.9,15.9-31.9,31.8-47.7,47.8c-3.2,3.2-8.3,2.4-9.5-2c-0.5-1.8,0.2-3.3,1.2-4.4c4.1-4.2,8.3-8.4,12.4-12.6l0.1,0.1l13.2-13.2
		c1.2-0.8,2.7-2.6,3.6-3.6l11-11l-0.1-0.1c1.3-1.3,2.6-2.6,3.8-3.9c0.3-0.3,0.7-0.6,1.4-1.2c-0.6-0.5-1.2-0.8-1.7-1.3
		c-7.6-7.6-15.2-15.1-22.7-22.7c-1.1-1.1-1.8-1.1-2.9,0c-4,4-8.1,7.9-12.1,11.8c-2.1,2.1-5,2.3-7.4,0.5c-1.3-1-2.1-4.4-1.2-6
		C111.9,296.8,115.1,294.7,117.7,292z M139.4,379.9c0.1,3.9-3.3,7.5-7.3,7.4c-4-0.1-7.2-3-7.3-7.5c0.1-3.7,3.3-7.1,7.5-6.9
		C137.1,373.1,139.3,376,139.4,379.9z M132.2,324.7c-4.3-0.1-7.4-3.4-7.3-7.3c0.1-3.9,3-6.9,7.3-7.1c4.1-0.1,6.9,3.9,7.4,7.3
		C139.5,321.2,135.9,324.7,132.2,324.7z M139.7,336C139.7,336,139.7,336,139.7,336c-0.1,0.1-0.2,0.2-0.3,0.3L139.7,336z M104.6,276
		c4.1,0,7.4,3.5,7.3,7.5c-0.1,4-3.5,7.2-7.5,7.1c-4.1-0.1-7.2-3.4-7.2-7.4C97.3,279.2,100.6,276,104.6,276z M79.8,299.6
		c0.2-2,2.3-3.5,5.2-3.5c1.4-0.1,2.5,0.4,3.7,1.5c6.4,6.5,12.9,12.9,19.3,19.3c4.3,4.2,8.4,8.6,12.8,12.7c2.4,2.3,2.1,5.5,0.2,7.4
		c-2.1,2.2-5.3,2.2-7.6-0.1c-7.2-7.2-14.4-14.4-21.6-21.6c-3.2-3.2-6.4-6.6-9.8-9.7C80.2,304.1,79.6,302.1,79.8,299.6z M108,348.5
		c0,3.9-3.2,7.2-6.8,7.3c-4.3,0.2-7.8-3.3-7.9-7.5c0-3.5,3.1-7.6,7.4-7.2C104.5,340.5,108,344.6,108,348.5z M69.2,310.3
		c4.3-0.2,7.3,3.7,7.4,7.1c0.1,3.6-3.4,7.5-7.4,7.3c-4.4-0.1-7.1-3.4-7.2-7.2C61.7,313.8,65.7,309.7,69.2,310.3z M49.3,361.9
		c2.6-2.8,5.4-5.4,8.1-8.1c4.8-4.8,9.5-9.7,14.3-14.5c3.5-3.5,7-6.9,10.5-10.4c1.4-1.4,3.1-2.2,5-1.3c2.2,0.9,3.6,2.4,3.4,5.2
		c0.4,2.5-1.8,3.7-3.2,5.2c-4.1,4.3-8.3,8.5-12.6,12.7c-4.2,4.1-8.4,8.2-12.6,12.3c-2,1.9-3.8,4-5.8,5.9c-1.9,1.9-5,1.7-7-0.3
		C47.6,366.7,47.4,363.9,49.3,361.9z M76.5,379.8c-0.2,4.3-2.4,7.3-7.4,7.5c-3.7,0.2-7.4-3.5-7.2-7.2c0.1-3.7,2.6-7.4,7.3-7.2
		C73.4,372.4,76.7,376.6,76.5,379.8z M29.6,348c0.3-3.8,3.6-6.9,7.8-6.9c3.7,0,6.7,3.2,6.7,7.2c0.2,4.5-3,7.4-7.2,7.5
		C33.8,355.9,29.3,352.5,29.6,348z M28.3,361.9c1.8-1.3,4.3-0.9,5.8,0.9c1.3,1.6,2.8,3.1,2.9,5.3c0,0.4,0.3,0.9,0.6,1.1
		c2.7,2.3,3.5,5.7,5,8.6c4.4,9,8.7,18.1,13.1,27.1c1.8,3.6-1.1,7.4-4.3,7.2c-2.7,0-4.1-1.3-4.9-3.1c-6.5-13.4-12.9-26.9-19.3-40.3
		C25.8,366,26.3,363.4,28.3,361.9z M80.6,469.8c-1.8,1.8-3.6,3.6-5.4,5.4c-2.3,2.2-5.1,1.3-6.8-0.5c-6.3-6.3-12.6-12.6-18.9-18.9
		c-4.4-4.4-8.9-8.9-13.3-13.3c-1.1-1.1-2.2-2.4-1.8-4.2c-0.4-1.6,0.8-2.6,1.7-3.6C46.6,424,56.9,413.2,67.9,403
		c5.6-5.2,10.9-10.8,16.5-16c1.9-1.7,3.5-1.8,5.4,0c0.7,0.6,1.3,1.3,2,2c1.5,1.5,1.6,2.2,0.2,3.8c-1.7,1.8-3.5,3.6-5.3,5.3
		c-1.6,1.6-3.2,3.2-4.8,4.8c-3.2,3.2-6.5,6.5-9.7,9.7c-2.8,2.8-5.5,5.7-8.4,8.5c-5,5-10,9.9-15,14.9c-0.6,0.6-1.2,1.2-1.7,1.8
		c-0.2,0.2-0.2,0.8,0,0.9c5,5,10.1,10,15.1,15.1c3.1,3,6.1,6.1,9.1,9.2c0.6,0.6,1.1,0.9,1.9,0.1c7.8-7.9,15.7-15.7,23.5-23.6
		c0.7-0.7,0.8-1.2-0.1-2.1c-3.2-3.1-6.3-6.3-9.4-9.5c-1.6-1.6-3.2-3.2-4.5-5.1c-2-2.9,0.1-6.7,3.5-7c1.9-0.1,3.4,0.3,4.8,1.7
		c5.2,5.3,10.6,10.4,15.8,15.7c1.1,1.1,2.2,2.4,2.8,3.9c1,2.6-0.7,4.4-2.3,6.1c-3.8,3.8-7.6,7.5-11.4,11.2
		C90.8,459.6,85.7,464.7,80.6,469.8z M79.6,439.7c0.1,3.3-3.9,7.6-7.6,7.3c-3.8,0.3-7.3-3.6-7.2-7.3c0.2-4.7,2.9-7.4,7.3-7.4
		C76.5,432.3,79.5,435.9,79.6,439.7z M105.7,474c-4.5-0.2-7.3-3.2-7.3-8.1c0-3.9,3.3-6.9,7.5-6.9c4.5,0,7.3,3,7.5,7.3
		C113.6,470.5,109.8,474.2,105.7,474z M137.9,443.1c-4-0.2-7.5-3.5-7.5-7.5c0-3.8,4-8.1,7.6-7.5c4-0.6,7.8,4.3,7.7,7.3
		C145.6,439.2,142.1,443.3,137.9,443.1z M136.3,415.7c-2.2,2.2-5.1,2-7.3-0.3c-8.9-9-17.9-17.9-26.8-26.8
		c-7.2-7.2-14.5-14.4-21.7-21.6c-1.8-1.8-2.1-4.9-0.3-6.8c2-2.2,4.4-3,6.8-1c1.7,1.4,3.3,3,4.8,4.5c2,2,3.9,4,5.9,6
		c2,2.1,4.1,4.1,6.2,6.2c1.3,1.3,2.6,2.5,3.9,3.8c1.9,1.9,3.7,3.7,5.6,5.6c1.2,1.2,2.3,2.4,3.5,3.5c2,2,4,4.1,6.1,6.1
		c2.1,2.1,4.3,4.1,6.4,6.2c1.2,1.1,2.3,2.4,3.4,3.5c8.5-8.5,17-17,26-26c-4.3-4.1-8.8-8.3-13.2-12.6c-2.2-2.2-1.8-5.6-0.3-7.3
		c1.6-1.8,5.3-2.4,7.5-0.2c4.4,4.4,8.8,9,13.1,13.4c1.2,1.3,2.4,2.6,3.6,3.9c2.6,2.7,2.3,4.9-0.2,7.4c-5.7,5.8-11.7,11.4-17.5,17.2
		C146.5,405.5,141.4,410.6,136.3,415.7z M169.5,474c-3.7,0.5-7.8-3.8-7.7-7.6c0.1-3.5,3.2-7.6,8-7.5c3.3,0.1,7.4,3.5,7.4,7.6
		C177.1,470.6,173.2,474.5,169.5,474z M201,428.1c3.8-0.1,7.5,3.6,7.5,7.5c0,4.2-3.7,7.4-7.5,7.5c-3.9,0-7.5-3.6-7.5-7.6
		C193.5,431.6,197.1,428.1,201,428.1z M189.9,447.8c1.7,1.7,2.1,4,1.2,6c-1.1,2.2-3.3,3.6-5.5,3.2c-1.2-0.2-2.5-0.9-3.4-1.7
		c-10.7-10.6-21.3-21.3-32-31.9c-3.3-3.2-1.6-8.3,1.7-9.2c0.6-0.2,1.3-0.2,1.9-0.2c1.6-0.1,2.8,0.5,3.9,1.6
		C168.3,426.2,179.1,437,189.9,447.8z M176.1,402c-4-0.1-7.2-3.5-7.1-7.5c0.1-4,3.4-7.2,7.5-7.1c4,0.1,7.3,3.4,7.2,7.4
		C183.6,398.8,180.2,402.1,176.1,402z M218.9,365.3c-3.2,3.3-6.6,6.6-9.9,9.9c-2.6,2.6-5.3,5.1-7.9,7.6c-2.2,2.1-5.2,2.1-7.3,0
		c-3.6-3.6-7.1-7.2-10.7-10.8c-3.6-3.6-7.2-7.1-10.8-10.6c-2.7-2.7-5.4-5.5-8.1-8.3c-0.9-0.9-1.8-1.7-2.7-2.6
		c-2.9-2.6-2.7-6.2,0.2-8.9c3.7-3.4,7.1-7.1,10.7-10.6c12.1-12.1,24.2-24.2,36.3-36.3c2.5-2.5,5.2-2.8,7.7-1.1
		c2.7,1.9,3.1,5.6,0.7,8c-8.3,8.3-16.5,16.5-24.8,24.8c-6.2,6.2-12.4,12.4-18.7,18.7c-0.7,0.7-1.1,1.2-0.2,2.1
		c7.9,7.9,15.8,15.7,23.7,23.6c0.1,0.1,0.3,0.2,0.7,0.5c2.9-3,5.8-5.9,8.7-8.8c1.6-1.6,3.2-3.1,4.9-4.5c1.8-1.6,5.3-1.5,6.9,0
		C220.3,359.8,220.9,363.1,218.9,365.3z M198,338.2c4.5,0.1,7.5,3.9,7.5,7.8c0,3.4-3.9,7.4-7.6,7.4c-3.6,0-8.1-4.2-7.4-7.6
		C190.2,341.8,193.8,338.1,198,338.2z M228.6,371.2c4,0.1,7.3,3.4,7.2,7.4c0,4.1-3.4,7.4-7.5,7.3c-4-0.1-7.2-3.4-7.2-7.4
		C221.2,374.4,224.5,371.2,228.6,371.2z M246.8,469.4c-4.1,0-7.3-3.3-7.3-7.3c0-4,3.3-7.3,7.3-7.3c4.1,0,7.4,3.4,7.4,7.4
		C254.1,466.2,250.8,469.4,246.8,469.4z"/>
</g>
<g>
	<path d="M468.8,284.1c2.5,5.1,3.8,10.8,3.8,17.2c0,5.3-1.3,10.6-3.8,15.8c-2.5,5.2-5.7,10-9.4,14.6l-67,80.6h78.2
		c1.6,2.9,3.1,6.7,4.6,11.2c1.5,4.5,2.2,9.4,2.2,14.8c0,9.3-2.1,16-6.2,20.2c-4.1,4.1-9.6,6.2-16.6,6.2H322.6
		c-4.3-3.7-7.7-8.1-10.2-13.2c-2.5-5.1-3.8-10.8-3.8-17.2c0-5.3,1.3-10.6,3.8-15.8c2.5-5.2,5.6-10,9.4-14.6l68.6-80.6H317
		c-1.6-2.9-3.1-6.6-4.6-11.2c-1.5-4.5-2.2-9.4-2.2-14.8c0-9.3,2.1-16,6.2-20.2c4.1-4.1,9.6-6.2,16.6-6.2h125.7
		C462.9,274.7,466.3,279.1,468.8,284.1z"/>
	<path d="M542,394.3c3.7,9.6,10,16.3,18.8,20.2c8.8,3.9,18.6,5.8,29.5,5.8c11.2,0,21.8-1.4,31.9-4.2c10.1-2.8,18.2-6,24.3-9.8
		c4.3,2.7,7.8,6.4,10.8,11.2c2.9,4.8,4.4,9.8,4.4,15.2c0,6.7-1.9,12.4-5.6,17.2c-3.7,4.8-9,8.8-15.8,12c-6.8,3.2-14.8,5.5-24.1,7
		c-9.3,1.5-19.6,2.2-30.7,2.2c-15.7,0-30.3-2.2-43.7-6.6c-13.4-4.4-25.1-11-34.9-19.8c-9.8-8.8-17.6-19.8-23.1-33.1
		c-5.6-13.3-8.4-28.9-8.4-46.7c0-17.6,2.9-32.7,8.6-45.3c5.7-12.6,13.3-23,22.7-31.1c9.4-8.1,20.2-14.1,32.1-18
		c12-3.9,24.2-5.8,36.7-5.8c14.1,0,26.9,2.1,38.5,6.4c11.6,4.3,21.5,10.1,29.9,17.6c8.4,7.5,14.8,16.4,19.4,26.7
		c4.5,10.4,6.8,21.7,6.8,33.9c0,9-2.5,16-7.6,20.7c-5.1,4.8-12.1,7.8-21.1,9.2L542,394.3z M575.9,314.1c-10.1,0-18.6,3.1-25.3,9.2
		c-6.8,6.1-10.8,14.8-12.2,25.9l67.8-11.2c-0.3-2.7-1.1-5.4-2.4-8.2c-1.3-2.8-3.2-5.4-5.6-7.8c-2.4-2.4-5.5-4.3-9.2-5.8
		C585.4,314.8,581,314.1,575.9,314.1z"/>
	<path d="M978.9,464.1c-2.9,0.8-7.1,1.6-12.6,2.4c-5.5,0.8-11.4,1.2-17.8,1.2c-13.3,0-22.9-2.2-28.7-6.6c-5.9-4.4-8.8-12.8-8.8-25.3
		v-95.4c0-8-2.1-13.8-6.4-17.4c-4.3-3.6-9.8-5.4-16.8-5.4c-4.5,0-8.8,0.8-13,2.4c-4.1,1.6-7.7,3.5-10.6,5.6c0,1.1,0.1,2.1,0.2,3
		c0.1,0.9,0.2,1.8,0.2,2.6v132.9c-2.9,0.8-7.1,1.6-12.6,2.4c-5.5,0.8-11.4,1.2-17.8,1.2c-13.3,0-22.9-2.2-28.7-6.6
		c-5.9-4.4-8.8-12.8-8.8-25.3v-95.4c0-8-2.3-13.8-7-17.4c-4.7-3.6-10.3-5.4-17-5.4c-5.1,0-9.4,0.7-13.2,2.2
		c-3.7,1.5-6.8,2.9-9.2,4.2v140.1c-2.9,0.8-7.1,1.6-12.6,2.4c-5.5,0.8-11.4,1.2-17.8,1.2c-13.3,0-22.9-2.2-28.7-6.6
		c-5.9-4.4-8.8-12.8-8.8-25.3V315.7c0-7.2,1.5-13,4.6-17.6c3.1-4.5,7.2-8.6,12.6-12.4c9-6.4,20.2-11.5,33.5-15.4
		c13.3-3.9,27.4-5.8,42.3-5.8c10.9,0,21.3,1.5,31.3,4.4c10,2.9,19.4,7.5,28.1,13.6c8-5,17-9.3,26.9-12.8c10-3.5,22-5.2,36.1-5.2
		c10.1,0,20,1.3,29.7,4c9.7,2.7,18.4,6.9,25.9,12.6c7.6,5.7,13.6,13.3,18.2,22.7c4.5,9.4,6.8,20.9,6.8,34.5V464.1z"/>
	<path d="M1059,394.3c3.7,9.6,10,16.3,18.8,20.2c8.8,3.9,18.6,5.8,29.5,5.8c11.2,0,21.8-1.4,31.9-4.2c10.1-2.8,18.2-6,24.3-9.8
		c4.3,2.7,7.8,6.4,10.8,11.2c2.9,4.8,4.4,9.8,4.4,15.2c0,6.7-1.9,12.4-5.6,17.2c-3.7,4.8-9,8.8-15.8,12c-6.8,3.2-14.8,5.5-24.1,7
		c-9.3,1.5-19.6,2.2-30.7,2.2c-15.7,0-30.3-2.2-43.7-6.6c-13.4-4.4-25.1-11-34.9-19.8c-9.8-8.8-17.6-19.8-23.1-33.1
		c-5.6-13.3-8.4-28.9-8.4-46.7c0-17.6,2.9-32.7,8.6-45.3c5.7-12.6,13.3-23,22.7-31.1c9.4-8.1,20.2-14.1,32.1-18
		c12-3.9,24.2-5.8,36.7-5.8c14.1,0,26.9,2.1,38.5,6.4c11.6,4.3,21.5,10.1,29.9,17.6c8.4,7.5,14.8,16.4,19.4,26.7
		c4.5,10.4,6.8,21.7,6.8,33.9c0,9-2.5,16-7.6,20.7c-5.1,4.8-12.1,7.8-21.1,9.2L1059,394.3z M1093,314.1c-10.1,0-18.6,3.1-25.3,9.2
		c-6.8,6.1-10.8,14.8-12.2,25.9l67.8-11.2c-0.3-2.7-1.1-5.4-2.4-8.2c-1.3-2.8-3.2-5.4-5.6-7.8c-2.4-2.4-5.5-4.3-9.2-5.8
		C1102.4,314.8,1098,314.1,1093,314.1z"/>
	<path d="M1390.6,464.1c-2.9,0.8-7.1,1.6-12.6,2.4c-5.5,0.8-11.4,1.2-17.8,1.2c-13.3,0-22.9-2.2-28.7-6.6
		c-5.9-4.4-8.8-12.8-8.8-25.3v-94.2c0-8.2-2.5-14.3-7.4-18.2c-4.9-3.9-11.4-5.8-19.4-5.8c-5.3,0-10.3,0.7-15,2
		c-4.7,1.3-9.1,3.1-13.4,5.2v139.3c-2.9,0.8-7.1,1.6-12.6,2.4c-5.5,0.8-11.4,1.2-17.8,1.2c-13.3,0-22.9-2.2-28.7-6.6
		c-5.9-4.4-8.8-12.8-8.8-25.3V315.7c0-7.2,1.5-13,4.6-17.6c3.1-4.5,7.2-8.6,12.6-12.4c9-6.4,20.4-11.5,34.1-15.4
		c13.7-3.9,28.9-5.8,45.7-5.8c30.1,0,53.2,6.6,69.4,19.8c16.2,13.2,24.3,31.6,24.3,55.3V464.1z"/>
</g>
</svg>
